<svg width="139" height="29" viewBox="0 0 139 29" fill="none" xmlns="http://www.w3.org/2000/svg">
<path d="M13.44 18.24L-1.21593e-05 13.696V8.70399L13.44 4.15999V7.99999L3.90399 10.912V11.488L13.44 14.4V18.24ZM16.1317 28.8L25.5397 -7.62939e-06H29.5717L20.1637 28.8H16.1317ZM35.7805 22.848C34.6498 22.848 33.6365 22.656 32.7405 22.272C31.8445 21.8667 31.1298 21.2907 30.5965 20.544C30.0845 19.776 29.8285 18.848 29.8285 17.76C29.8285 16.672 30.0845 15.7653 30.5965 15.04C31.1298 14.2933 31.8552 13.7387 32.7725 13.376C33.7112 12.992 34.7778 12.8 35.9725 12.8H40.3245V11.904C40.3245 11.1573 40.0898 10.5493 39.6205 10.08C39.1512 9.58933 38.4045 9.34399 37.3805 9.34399C36.3778 9.34399 35.6312 9.57866 35.1405 10.048C34.6498 10.496 34.3298 11.0827 34.1805 11.808L30.4685 10.56C30.7245 9.74933 31.1298 9.01333 31.6845 8.35199C32.2605 7.66933 33.0178 7.12533 33.9565 6.71999C34.9165 6.29333 36.0792 6.07999 37.4445 6.07999C39.5352 6.07999 41.1885 6.60266 42.4045 7.64799C43.6205 8.69333 44.2285 10.208 44.2285 12.192V18.112C44.2285 18.752 44.5272 19.072 45.1245 19.072H46.4045V22.4H43.7165C42.9272 22.4 42.2765 22.208 41.7645 21.824C41.2525 21.44 40.9965 20.928 40.9965 20.288V20.256H40.3885C40.3032 20.512 40.1112 20.8533 39.8125 21.28C39.5138 21.6853 39.0445 22.048 38.4045 22.368C37.7645 22.688 36.8898 22.848 35.7805 22.848ZM36.4845 19.584C37.6152 19.584 38.5325 19.2747 39.2365 18.656C39.9618 18.016 40.3245 17.1733 40.3245 16.128V15.808H36.2605C35.5138 15.808 34.9272 15.968 34.5005 16.288C34.0738 16.608 33.8605 17.056 33.8605 17.632C33.8605 18.208 34.0845 18.6773 34.5325 19.04C34.9805 19.4027 35.6312 19.584 36.4845 19.584ZM56.272 22.848C54.6933 22.848 53.296 22.5173 52.08 21.856C50.8853 21.1733 49.9467 20.224 49.264 19.008C48.6027 17.7707 48.272 16.32 48.272 14.656V14.272C48.272 12.608 48.6027 11.168 49.264 9.95199C49.9253 8.71466 50.8533 7.76533 52.048 7.10399C53.2427 6.42133 54.6293 6.07999 56.208 6.07999C57.7653 6.07999 59.12 6.43199 60.272 7.13599C61.424 7.81866 62.32 8.77866 62.96 10.016C63.6 11.232 63.92 12.6507 63.92 14.272V15.648H52.368C52.4107 16.736 52.816 17.6213 53.584 18.304C54.352 18.9867 55.2907 19.328 56.4 19.328C57.5307 19.328 58.3627 19.0827 58.896 18.592C59.4293 18.1013 59.8347 17.5573 60.112 16.96L63.408 18.688C63.1093 19.2427 62.672 19.8507 62.096 20.512C61.5413 21.152 60.7947 21.7067 59.856 22.176C58.9173 22.624 57.7227 22.848 56.272 22.848ZM52.4 12.64H59.824C59.7387 11.7227 59.3653 10.9867 58.704 10.432C58.064 9.87733 57.2213 9.59999 56.176 9.59999C55.088 9.59999 54.224 9.87733 53.584 10.432C52.944 10.9867 52.5493 11.7227 52.4 12.64ZM66.7407 22.4V18.688H69.6847V3.71199H66.7407V-7.62939e-06H75.9567C78.9647 -7.62939e-06 81.2474 0.767993 82.8047 2.30399C84.3834 3.81866 85.1727 6.07999 85.1727 9.08799V13.312C85.1727 16.32 84.3834 18.592 82.8047 20.128C81.2474 21.6427 78.9647 22.4 75.9567 22.4H66.7407ZM73.9087 18.56H76.0207C77.7274 18.56 78.9754 18.112 79.7647 17.216C80.5541 16.32 80.9487 15.0613 80.9487 13.44V8.95999C80.9487 7.31733 80.5541 6.05866 79.7647 5.18399C78.9754 4.28799 77.7274 3.83999 76.0207 3.83999H73.9087V18.56ZM96.0532 22.848C94.4746 22.848 93.0772 22.5173 91.8612 21.856C90.6666 21.1733 89.7279 20.224 89.0452 19.008C88.3839 17.7707 88.0532 16.32 88.0532 14.656V14.272C88.0532 12.608 88.3839 11.168 89.0452 9.95199C89.7066 8.71466 90.6346 7.76533 91.8292 7.10399C93.0239 6.42133 94.4106 6.07999 95.9892 6.07999C97.5466 6.07999 98.9012 6.43199 100.053 7.13599C101.205 7.81866 102.101 8.77866 102.741 10.016C103.381 11.232 103.701 12.6507 103.701 14.272V15.648H92.1492C92.1919 16.736 92.5972 17.6213 93.3652 18.304C94.1332 18.9867 95.0719 19.328 96.1812 19.328C97.3119 19.328 98.1439 19.0827 98.6772 18.592C99.2106 18.1013 99.6159 17.5573 99.8932 16.96L103.189 18.688C102.891 19.2427 102.453 19.8507 101.877 20.512C101.323 21.152 100.576 21.7067 99.6372 22.176C98.6986 22.624 97.5039 22.848 96.0532 22.848ZM92.1812 12.64H99.6052C99.5199 11.7227 99.1466 10.9867 98.4852 10.432C97.8452 9.87733 97.0026 9.59999 95.9572 9.59999C94.8692 9.59999 94.0052 9.87733 93.3652 10.432C92.7252 10.9867 92.3306 11.7227 92.1812 12.64ZM110.149 22.4L105.093 6.52799H109.381L113.061 19.456H113.637L117.317 6.52799H121.605L116.549 22.4H110.149ZM125.312 18.24V14.4L134.848 11.488V10.912L125.312 7.99999V4.15999L138.752 8.70399V13.696L125.312 18.24Z" fill="#6366F1"/>
</svg>
